# xmcd
#
# Track frame offsets: 
#        150
#        20300
#        38878
#        56299
#        80754
#        102376
#        120209
#        136180
#        152634
#        169913
#
# Disc length: 2479 seconds
#
# Revision: 0
# Processed by: cddbd v1.5.2PL0 Copyright (c) Steve Scherf et al.
# Submitted via: ExactAudioCopyFreeDBPlugin 1.0
#
DISCID=7309ad0a
DTITLE=Shovels and Rope - Busted Jukebox Volume 1
DYEAR=2015
DGENRE=Country
TTITLE0=Unknown Legend (with Shakey Graves)
TTITLE1=Bullet Belt (with Butch Walker)
TTITLE2=(What's So Funny 'Bout) Peace, Love, and Understanding (with L
TTITLE2=ucius)
TTITLE3=Patience (with The Milk Carton Kids)
TTITLE4=Boys Can Never Tell (with J. Roddy Walston)
TTITLE5=Nothing Takes The Place Of You (with JD McPherson)
TTITLE6=Last (with Caroline Rose)
TTITLE7=Strangers (with Inlaws)
TTITLE8=Perfect Day (with Preservation Hall Jazz Band)
TTITLE9=Leaving Louisiana in the Broad Daylight (Shovels and Rope)
EXTD=
EXTT0=
EXTT1=
EXTT2=
EXTT3=
EXTT4=
EXTT5=
EXTT6=
EXTT7=
EXTT8=
EXTT9=
PLAYORDER=
